<svg xmlns="http://www.w3.org/2000/svg" width="512" height="512" viewBox="0 0 512 512">
  <rect width="512" height="512" rx="110" fill="#fdf5ea"/>
  <g transform="translate(128, 96) scale(8)">
    <path d="M4 9 Q4 7 16 7 Q28 7 28 9 L21 25 Q19.5 28 16 28 Q12.5 28 11 25 Z" fill="#a07850" opacity="0.15"/>
    <path d="M4 9 Q4 7 16 7 Q28 7 28 9 L21 25 Q19.5 28 16 28 Q12.5 28 11 25 Z" stroke="#a07850" stroke-width="1.6" stroke-linejoin="round" fill="none"/>
    <ellipse cx="16" cy="9" rx="12" ry="2.2" stroke="#a07850" stroke-width="1.4" fill="none"/>
    <path d="M23 14 C28 14 28.5 16 28.5 18 C28.5 20 28 22 23 22" stroke="#a07850" stroke-width="1.6" stroke-linecap="round" fill="none"/>
    <line x1="16" y1="9.5" x2="16" y2="27" stroke="#a07850" stroke-width="1" opacity="0.35" stroke-linecap="round"/>
    <ellipse cx="16" cy="29" rx="6" ry="1.4" stroke="#a07850" stroke-width="1.2" opacity="0.5" fill="none"/>
  </g>
</svg>
